<svg width="110" height="110" viewBox="0 0 110 110" fill="none" xmlns="http://www.w3.org/2000/svg">
<path d="M109.91 90.4144C109.91 101.181 101.181 109.909 90.4133 109.909C79.646 109.909 70.9174 101.181 70.9174 90.4144C70.9174 79.6481 79.646 70.9202 90.4133 70.9202C101.181 70.9202 109.91 79.6481 109.91 90.4144Z" fill="url(#paint0_linear_327_1926)"/>
<path d="M86.3536 31.9087C86.3536 23.4454 82.9914 15.3293 77.0062 9.34571C71.0218 3.36188 62.905 0 54.4411 0C45.9778 0 37.8609 3.36188 31.8759 9.34571C25.8916 15.3295 22.5294 23.4456 22.5294 31.9087C22.5294 40.3712 25.8916 48.4873 31.8759 54.4717C37.8611 60.4556 45.978 63.8174 54.4411 63.8174C62.9044 63.8174 71.0212 60.4556 77.0062 54.4717C82.9914 48.4879 86.3536 40.3718 86.3536 31.9087ZM54.4413 45.0518C50.9548 45.0518 47.6119 43.6664 45.1467 41.2016C42.6815 38.7375 41.2969 35.394 41.2969 31.9087C41.2969 28.4226 42.6817 25.08 45.1467 22.615C47.6119 20.1501 50.9548 18.7656 54.4413 18.7656C57.9269 18.7656 61.2707 20.1502 63.7358 22.615C66.201 25.08 67.5856 28.4226 67.5856 31.9087C67.5825 35.3933 66.1963 38.7343 63.7319 41.1985C61.2675 43.6626 57.9261 45.0487 54.4413 45.0518Z" fill="url(#paint1_linear_327_1926)"/>
<path d="M21.2787 101.048C21.1767 97.6915 22.438 94.4362 24.7765 92.0258C27.115 89.6155 30.33 88.2545 33.6883 88.2545C37.0466 88.2545 40.2615 89.6154 42.6001 92.0258C44.9387 94.4362 46.2 97.6915 46.0979 101.048C46.0979 105.942 50.0655 109.91 54.9599 109.91H58.5135C63.4078 109.91 67.3754 105.942 67.3754 101.048C67.2121 92.2221 63.5908 83.8134 57.2912 77.6294C50.9908 71.4453 42.5161 67.9808 33.6877 67.9808C24.8601 67.9808 16.3846 71.4453 10.0842 77.6294C3.7846 83.8126 0.163311 92.2215 0 101.048C0 105.942 3.96761 109.91 8.86192 109.91H12.4156C17.3101 109.91 21.278 105.943 21.2787 101.048Z" fill="url(#paint2_linear_327_1926)"/>
<defs>
<linearGradient id="paint0_linear_327_1926" x1="18.6028" y1="117.638" x2="107.279" y2="113.214" gradientUnits="userSpaceOnUse">
<stop stop-color="#3DA2FF"/>
<stop offset="1" stop-color="#FFEED2"/>
</linearGradient>
<linearGradient id="paint1_linear_327_1926" x1="18.6028" y1="117.638" x2="107.279" y2="113.214" gradientUnits="userSpaceOnUse">
<stop stop-color="#3DA2FF"/>
<stop offset="1" stop-color="#FFEED2"/>
</linearGradient>
<linearGradient id="paint2_linear_327_1926" x1="18.6028" y1="117.638" x2="107.279" y2="113.214" gradientUnits="userSpaceOnUse">
<stop stop-color="#3DA2FF"/>
<stop offset="1" stop-color="#FFEED2"/>
</linearGradient>
</defs>
</svg>
