<svg width="110" height="110" viewBox="0 0 110 110" fill="none" xmlns="http://www.w3.org/2000/svg">
<path d="M109.899 90.4024C109.899 101.169 101.171 109.897 90.4037 109.897C79.6374 109.897 70.9095 101.169 70.9095 90.4024C70.9095 79.6363 79.6374 70.9087 90.4037 70.9087C101.171 70.9087 109.899 79.6363 109.899 90.4024Z" fill="url(#paint0_linear_327_1925)"/>
<path d="M78.0013 0.00114999C69.5387 0.00114999 61.4226 3.36296 55.4382 9.34666C49.4543 15.3304 46.0924 23.4463 46.0924 31.9092C46.0924 40.3715 49.4543 48.4874 55.4382 54.4717C61.422 60.4554 69.5381 63.8172 78.0013 63.8172C86.4646 63.8172 94.5807 60.4554 100.564 54.4717C106.548 48.488 109.91 40.3721 109.91 31.9092C109.91 23.4461 106.548 15.3302 100.564 9.34666C94.5805 3.36296 86.4644 0.00114999 78.0013 0.00114999ZM78.0013 45.0516C74.5159 45.0516 71.1725 43.6663 68.7083 41.2015C66.2434 38.7374 64.8581 35.3941 64.8581 31.9088C64.8581 28.4227 66.2435 25.0802 68.7083 22.6153C71.1725 20.1504 74.5159 18.766 78.0013 18.766C81.4874 18.766 84.83 20.1506 87.295 22.6153C89.7599 25.0802 91.1444 28.4227 91.1444 31.9088C91.1413 35.3933 89.7559 38.7343 87.2918 41.1984C84.8277 43.6625 81.4866 45.0485 78.0013 45.0516Z" fill="url(#paint1_linear_327_1925)"/>
<path d="M34.4078 67.3689C25.476 67.3689 16.9092 70.9169 10.5925 77.2335C4.27659 83.5493 0.72844 92.115 0.72844 101.048V102.818C0.72844 106.735 3.90346 109.91 7.82005 109.91H13.1207C18.0149 109.91 21.9824 105.942 21.9824 101.048C21.8797 97.6918 23.1416 94.4365 25.4799 92.0262C27.8175 89.6159 31.0322 88.255 34.3909 88.255C37.7489 88.255 40.9636 89.6158 43.3019 92.0262C45.6395 94.4365 46.9015 97.6918 46.7986 101.048C46.7986 105.942 50.7662 109.91 55.6604 109.91H61.0061C64.9227 109.91 68.0977 106.735 68.0977 102.818V101.048C68.0977 95.1349 66.5406 89.3259 63.5836 84.2056C60.6265 79.0853 56.373 74.8332 51.2516 71.8778C46.1301 68.9231 40.3204 67.3677 34.407 67.3699L34.4078 67.3689Z" fill="url(#paint2_linear_327_1925)"/>
<path d="M7.09179 0C3.17491 0.000650394 0 3.17609 0 7.09296V12.4143C0 17.3086 3.96762 21.2762 8.86193 21.2762C12.2185 21.1742 15.4738 22.4354 17.8842 24.7736C20.2946 27.1119 21.6555 30.3265 21.6555 33.6844C21.6555 37.0423 20.2947 40.2569 17.8842 42.5952C15.4738 44.9335 12.2185 46.1947 8.86193 46.0926C3.96762 46.0926 0 50.0603 0 54.9546V60.2759C0 64.1926 3.1751 67.3677 7.09179 67.3677H8.86203C17.688 67.2044 26.0968 63.5835 32.2808 57.2846C38.4649 50.9849 41.9294 42.5112 41.9294 33.6838C41.9294 24.8572 38.4649 16.3828 32.2808 10.0831C26.0976 3.78417 17.6886 0.163292 8.86203 0H7.09179Z" fill="url(#paint3_linear_327_1925)"/>
<defs>
<linearGradient id="paint0_linear_327_1925" x1="18.6028" y1="117.638" x2="107.279" y2="113.214" gradientUnits="userSpaceOnUse">
<stop stop-color="#3DA2FF"/>
<stop offset="1" stop-color="#FFEED2"/>
</linearGradient>
<linearGradient id="paint1_linear_327_1925" x1="18.6028" y1="117.638" x2="107.279" y2="113.214" gradientUnits="userSpaceOnUse">
<stop stop-color="#3DA2FF"/>
<stop offset="1" stop-color="#FFEED2"/>
</linearGradient>
<linearGradient id="paint2_linear_327_1925" x1="18.6028" y1="117.638" x2="107.279" y2="113.214" gradientUnits="userSpaceOnUse">
<stop stop-color="#3DA2FF"/>
<stop offset="1" stop-color="#FFEED2"/>
</linearGradient>
<linearGradient id="paint3_linear_327_1925" x1="18.6028" y1="117.638" x2="107.279" y2="113.214" gradientUnits="userSpaceOnUse">
<stop stop-color="#3DA2FF"/>
<stop offset="1" stop-color="#FFEED2"/>
</linearGradient>
</defs>
</svg>
