<svg width="105" height="110" viewBox="0 0 105 110" fill="none" xmlns="http://www.w3.org/2000/svg">
<path d="M73.4746 93.8116C73.4746 102.703 80.5317 109.91 89.2376 109.91C97.9429 109.91 105 102.703 105 93.8116C105 84.9211 97.9429 77.7138 89.2376 77.7138C80.5317 77.7138 73.4746 84.9211 73.4746 93.8116Z" fill="url(#paint0_linear_324_669)"/>
<path d="M73.4746 54.9547C73.4746 63.8459 80.5317 71.0531 89.2376 71.0531C97.9429 71.0531 105 63.8459 105 54.9547C105 46.0642 97.9429 38.8569 89.2376 38.8569C80.5317 38.8569 73.4746 46.0642 73.4746 54.9547Z" fill="url(#paint1_linear_324_669)"/>
<path d="M73.4746 16.0978C73.4746 24.9889 80.5317 32.1962 89.2376 32.1962C97.9429 32.1962 105 24.9889 105 16.0978C105 7.20724 97.9429 0 89.2376 0C80.5317 0 73.4746 7.20724 73.4746 16.0978Z" fill="url(#paint2_linear_324_669)"/>
<path d="M32.8197 63.844C24.3516 63.844 16.2309 60.4807 10.2439 54.4944C4.25661 48.5081 0.892807 40.3886 0.892807 31.922C0.892807 23.4552 4.25661 15.3357 10.2439 9.3496C16.2311 3.36328 24.3518 0 32.8197 0C41.2871 0 49.4078 3.36328 55.3956 9.3496C61.3829 15.3359 64.7467 23.4554 64.7467 31.922C64.7467 40.388 61.3829 48.5075 55.3956 54.4944C49.4084 60.4807 41.2876 63.844 32.8197 63.844ZM32.8197 18.7746C29.3316 18.7746 25.9871 20.1598 23.5207 22.6256C21.0544 25.0916 19.6691 28.4356 19.6691 31.9232C19.6691 35.4099 21.0545 38.7548 23.5207 41.2199C25.9871 43.6859 29.3316 45.0717 32.8197 45.0717C36.307 45.0717 39.6524 43.6858 42.1179 41.2199C44.5843 38.7548 45.9703 35.4099 45.9703 31.9232C45.9673 28.4364 44.5803 25.0939 42.1148 22.6287C39.6492 20.1636 36.3063 18.7777 32.8197 18.7746Z" fill="url(#paint3_linear_324_669)"/>
<path d="M47.1278 100.893C47.2299 97.5354 45.968 94.2795 43.6283 91.8674C41.2887 89.456 38.0722 88.0953 34.7123 88.0953C31.3524 88.0953 28.1359 89.4559 25.7962 91.8674C23.4566 94.2795 22.1946 97.5354 22.2967 100.893C22.2967 105.79 18.3275 109.759 13.4311 109.759H8.10381C4.18551 109.759 1.00911 106.583 1.00911 102.664V100.893C1.1725 92.0644 4.79552 83.652 11.0981 77.4648C17.4016 71.2782 25.8803 67.813 34.7129 67.813C43.5455 67.813 52.0242 71.2782 58.3276 77.4648C64.6302 83.6514 68.2533 92.0638 68.4166 100.893V102.664C68.4166 106.583 65.2402 109.759 61.3219 109.759H55.9946C51.0981 109.759 47.1285 105.79 47.1278 100.893Z" fill="url(#paint4_linear_324_669)"/>
<defs>
<linearGradient id="paint0_linear_324_669" x1="87.3794" y1="117.638" x2="3.36377" y2="113.668" gradientUnits="userSpaceOnUse">
<stop stop-color="#FFEED2"/>
<stop offset="1" stop-color="#3DA2FF"/>
</linearGradient>
<linearGradient id="paint1_linear_324_669" x1="87.3794" y1="117.638" x2="3.36377" y2="113.668" gradientUnits="userSpaceOnUse">
<stop stop-color="#FFEED2"/>
<stop offset="1" stop-color="#3DA2FF"/>
</linearGradient>
<linearGradient id="paint2_linear_324_669" x1="87.3794" y1="117.638" x2="3.36377" y2="113.668" gradientUnits="userSpaceOnUse">
<stop stop-color="#FFEED2"/>
<stop offset="1" stop-color="#3DA2FF"/>
</linearGradient>
<linearGradient id="paint3_linear_324_669" x1="87.3794" y1="117.638" x2="3.36377" y2="113.668" gradientUnits="userSpaceOnUse">
<stop stop-color="#FFEED2"/>
<stop offset="1" stop-color="#3DA2FF"/>
</linearGradient>
<linearGradient id="paint4_linear_324_669" x1="87.3794" y1="117.638" x2="3.36377" y2="113.668" gradientUnits="userSpaceOnUse">
<stop stop-color="#FFEED2"/>
<stop offset="1" stop-color="#3DA2FF"/>
</linearGradient>
</defs>
</svg>
